<?xml version="1.0" standalone="no"?>
<!DOCTYPE svg PUBLIC "-//W3C//DTD SVG 20010904//EN"
 "http://www.w3.org/TR/2001/REC-SVG-20010904/DTD/svg10.dtd">
<svg version="1.0" xmlns="http://www.w3.org/2000/svg"
 width="260.000000pt" height="260.000000pt" viewBox="0 0 260.000000 260.000000"
 preserveAspectRatio="xMidYMid meet">
<metadata>
Created by potrace 1.11, written by Peter Selinger 2001-2013
</metadata>
<g transform="translate(0.000000,260.000000) scale(0.100000,-0.100000)"
fill="#000000" stroke="none">
<path d="M1280 2196 c-125 -63 -111 -412 21 -504 35 -24 65 -24 97 3 97 82 88
354 -16 473 -27 30 -73 43 -102 28z"/>
<path d="M807 1994 c-118 -64 -61 -383 81 -461 190 -104 224 274 39 432 -22
19 -46 35 -53 35 -7 0 -18 2 -26 5 -7 2 -26 -3 -41 -11z"/>
<path d="M1693 1955 c-87 -108 -82 -394 9 -470 40 -34 63 -32 102 10 42 44 68
133 68 234 1 204 -97 328 -179 226z"/>
<path d="M487 1470 c-36 -29 -51 -73 -44 -135 14 -141 131 -280 231 -277 73 2
102 51 93 157 -13 164 -190 325 -280 255z"/>
<path d="M1265 1462 c-273 -29 -494 -390 -439 -716 10 -64 11 -69 29 -110 107
-252 368 -253 562 -3 l22 29 83 -21 c162 -39 291 -18 369 61 202 204 -40 622
-426 737 -70 21 -145 29 -200 23z"/>
</g>
</svg>
